<?xml version="1.0" standalone="no"?>
<!DOCTYPE svg PUBLIC "-//W3C//DTD SVG 20010904//EN"
 "http://www.w3.org/TR/2001/REC-SVG-20010904/DTD/svg10.dtd">
<svg version="1.0" xmlns="http://www.w3.org/2000/svg"
 width="920.000000pt" height="544.000000pt" viewBox="0 0 920.000000 544.000000"
 preserveAspectRatio="xMidYMid meet">

<g transform="translate(0.000000,544.000000) scale(0.100000,-0.100000)"
fill="#000000" stroke="none">
<path d="M3905 5430 c-309 -28 -601 -153 -925 -396 -166 -125 -255 -216 -265
-272 -8 -47 10 -361 29 -491 7 -52 10 -108 6 -125 l-7 -31 -12 30 c-36 88 -84
286 -104 430 l-13 89 -59 -94 c-77 -126 -148 -272 -189 -395 l-34 -100 29 -78
c32 -89 103 -227 174 -337 l47 -73 -39 30 c-57 46 -175 171 -212 226 -18 27
-35 47 -37 45 -14 -15 -35 -272 -32 -393 3 -125 6 -144 26 -177 35 -57 284
-291 405 -381 59 -44 107 -81 107 -83 0 -4 -66 5 -125 18 -27 6 -85 26 -127
44 l-78 32 6 -26 c15 -64 86 -265 119 -337 19 -43 34 -80 32 -82 -11 -11 -145
94 -232 182 -162 161 -282 357 -330 538 -99 368 -21 737 228 1071 l68 91 -89
-92 c-148 -151 -275 -360 -351 -577 -96 -274 -155 -687 -109 -758 29 -44 234
-239 362 -345 193 -158 197 -163 81 -103 -128 67 -237 137 -351 226 l-91 71 8
-38 c31 -138 123 -331 214 -449 53 -69 165 -176 228 -219 185 -126 441 -176
705 -137 176 26 286 68 492 187 l55 32 -30 -33 c-102 -109 -317 -230 -492
-277 -85 -23 -118 -26 -253 -26 -136 0 -167 3 -253 26 -107 29 -282 107 -356
160 -70 50 -81 53 -31 8 69 -63 227 -166 322 -210 166 -77 342 -121 586 -147
158 -17 254 -14 300 10 37 19 168 174 294 349 55 76 102 136 105 133 10 -10
-128 -274 -191 -366 -35 -52 -63 -96 -61 -98 1 -2 79 25 171 59 229 83 367
130 371 125 9 -9 -31 -137 -66 -211 -74 -158 -216 -361 -359 -513 -59 -63 -65
-73 -47 -77 107 -25 181 -36 306 -47 l146 -12 66 48 c71 50 208 181 301 286
l58 65 -38 -75 c-36 -74 -110 -190 -166 -261 -15 -20 -28 -39 -28 -41 0 -17
304 46 433 88 132 44 159 83 263 382 23 67 45 119 47 115 16 -25 26 -175 18
-248 -5 -44 -8 -81 -7 -82 11 -11 297 210 404 312 l65 61 -104 27 c-125 33
-282 108 -364 174 -52 41 -145 159 -145 182 0 15 244 36 405 36 139 0 170 -3
232 -23 122 -38 173 -99 173 -207 0 -195 -116 -430 -313 -632 -290 -298 -702
-508 -1157 -589 -144 -26 -558 -26 -735 0 -275 40 -467 106 -640 221 -61 40
-219 189 -248 234 -29 43 -30 14 -3 -45 68 -148 279 -342 565 -519 166 -103
251 -147 379 -200 366 -149 992 -216 1123 -120 51 38 199 207 336 382 70 90
129 161 131 158 2 -2 -26 -61 -63 -132 -66 -127 -161 -277 -228 -363 -20 -24
-35 -46 -33 -47 1 -2 63 12 137 31 143 36 277 85 400 147 l76 37 35 79 c45 98
80 209 110 346 13 59 26 107 31 107 11 0 8 -162 -7 -300 -8 -69 -13 -126 -12
-127 6 -7 199 152 278 228 110 108 138 155 138 232 0 62 -22 229 -45 336 -8
41 -14 76 -11 78 15 15 166 -236 166 -276 0 -6 4 -11 8 -11 15 0 131 253 168
368 20 62 38 111 40 109 2 -2 14 -48 26 -103 28 -132 31 -379 4 -502 -67 -312
-232 -576 -474 -754 -136 -101 -349 -188 -552 -227 l-105 -20 110 5 c346 18
649 139 994 399 167 126 256 217 266 273 8 47 -10 361 -29 491 -7 52 -10 108
-6 125 l7 31 12 -30 c37 -90 98 -355 113 -495 3 -21 13 -9 62 70 78 125 148
271 190 395 l34 100 -25 70 c-38 104 -127 272 -211 395 -15 23 -13 22 23 -6
58 -46 176 -171 214 -227 18 -27 35 -47 37 -45 14 15 35 272 32 394 -3 137 -4
142 -33 184 -45 65 -277 282 -397 372 -60 45 -108 82 -108 84 0 4 66 -5 125
-18 28 -6 85 -26 127 -44 l78 -32 -6 26 c-13 58 -86 266 -119 338 -20 42 -34
79 -32 81 11 11 145 -94 232 -182 161 -161 282 -357 330 -537 99 -371 21 -736
-228 -1072 l-68 -91 89 92 c158 161 282 371 362 610 67 203 130 566 114 668
-3 26 -18 59 -33 78 -47 58 -243 240 -383 356 -76 62 -138 115 -138 118 0 8
188 -95 275 -150 44 -29 121 -84 171 -123 l91 -71 -8 38 c-18 80 -81 236 -125
314 -64 110 -119 179 -212 266 -212 199 -485 273 -817 224 -168 -25 -283 -69
-485 -186 l-55 -32 30 33 c102 109 316 230 492 277 86 23 117 26 253 26 135 0
168 -3 253 -26 107 -29 250 -92 343 -153 93 -61 94 -60 10 17 -273 254 -450
339 -705 339 -230 0 -506 -82 -691 -205 -129 -86 -263 -237 -366 -412 -143
-246 -217 -313 -345 -313 -71 0 -165 45 -208 99 -69 86 -151 378 -151 535 0
227 164 388 410 403 225 14 398 -92 403 -248 1 -27 5 -49 8 -49 15 0 61 86 75
142 34 131 -24 288 -155 418 -193 192 -484 300 -729 270 -157 -20 -303 -89
-399 -188 -61 -64 -77 -93 -32 -59 54 40 116 67 188 83 77 16 81 16 81 7 0 -5
-18 -16 -40 -26 -41 -19 -136 -104 -127 -113 3 -3 22 3 44 14 60 31 142 52
200 52 63 0 69 -12 13 -29 -61 -18 -210 -123 -278 -196 -80 -85 -135 -166
-187 -279 -54 -114 -80 -208 -99 -361 -22 -172 -59 -299 -90 -311 -22 -8 -95
34 -151 87 -95 90 -129 193 -128 394 1 283 95 489 332 726 230 230 492 387
831 497 223 73 410 102 645 102 560 0 934 -118 1191 -374 44 -44 88 -92 97
-105 31 -46 30 -11 -1 51 -88 179 -355 404 -718 606 -228 127 -456 199 -775
246 -271 40 -498 33 -570 -17 -42 -30 -206 -217 -336 -384 -70 -90 -129 -161
-131 -158 -15 15 211 395 304 512 l25 31 -93 -20 c-131 -28 -284 -81 -413
-142 l-111 -53 -36 -79 c-45 -99 -80 -210 -110 -347 -13 -59 -27 -107 -32
-107 -11 0 -1 254 14 354 6 38 9 70 7 72 -1 1 -43 -28 -92 -65 -121 -91 -277
-245 -305 -301 -20 -40 -22 -54 -17 -135 5 -76 31 -251 53 -353 l5 -27 -26 30
c-46 52 -103 144 -127 206 -13 32 -26 59 -29 59 -13 0 -132 -267 -166 -372
l-36 -111 -13 43 c-46 154 -52 427 -15 593 115 509 487 856 1024 956 82 15 92
19 52 19 -27 -1 -86 -4 -130 -8z m1155 -1261 c48 -12 62 -23 54 -42 -4 -12
-13 -15 -33 -11 -25 6 -131 62 -131 69 0 5 66 -5 110 -16z"/>
</g>
</svg>
